Coordinates
version=1
nRows=7
nColumns=40
inDegrees=yes

Units are S.I. units (second, meters, Newtons, ...)
Angles are in degrees.

endheader
time	pelvis_tilt	pelvis_list	pelvis_rotation	pelvis_tx	pelvis_ty	pelvis_tz	hip_flexion_r	hip_adduction_r	hip_rotation_r	knee_angle_r	knee_angle_r_beta	ankle_angle_r	subtalar_angle_r	mtp_angle_r	hip_flexion_l	hip_adduction_l	hip_rotation_l	knee_angle_l	knee_angle_l_beta	ankle_angle_l	subtalar_angle_l	mtp_angle_l	lumbar_extension	lumbar_bending	lumbar_rotation	arm_flex_r	arm_add_r	arm_rot_r	elbow_flex_r	pro_sup_r	wrist_flex_r	wrist_dev_r	arm_flex_l	arm_add_l	arm_rot_l	elbow_flex_l	pro_sup_l	wrist_flex_l	wrist_dev_l
     11.63228571	      0.65061378	     -0.07857203	     -0.21158048	      0.84984403	      0.93737699	      0.41596227	     32.54561964	    -10.28920413	     -7.83046860	     57.38410243	     57.38410243	      3.45059418	    -16.96168854	      4.97903083	      5.10201493	      1.34754934	    -11.32023022	     14.13079566	     14.13079566	     11.76277510	     -6.84542119	     -8.17687074	     -9.86928892	      1.06251647	      1.52910331	     -9.16562889	    -12.85193963	     -3.04569951	     35.35517667	     46.33182182	      0.00000000	      0.00000000	     17.75053114	    -11.63566015	      0.24498558	     54.79959912	     46.56249353	      0.00000000	      0.00000000
     11.64457143	      0.66601204	      0.00611003	     -0.36682933	      0.84912333	      0.93729571	      0.41560140	     32.40358409	    -10.19526620	     -7.91315362	     53.85817287	     53.85817287	      3.60448818	    -16.32006557	      4.55357386	      4.23544322	      1.51327340	    -11.70581870	     13.43230891	     13.43230891	     11.95747329	     -6.12813206	     -8.54135824	     -9.97057369	      0.93267145	      1.74884595	    -10.43261699	    -12.85894529	     -2.84815974	     33.43382678	     46.37932186	      0.00000000	      0.00000000	     18.52394937	    -11.56958195	     -0.29540826	     56.50991962	     46.63580570	      0.00000000	      0.00000000
     11.65685714	      0.54740144	      0.04191711	     -0.45095201	      0.84838614	      0.93694793	      0.41532335	     32.12224929	    -10.09132153	     -8.30919620	     49.85350878	     49.85350878	      2.98767561	    -15.80696993	      2.26874419	      3.61336216	      1.56899753	    -12.20262725	     12.90750985	     12.90750985	     12.02778085	     -5.25148483	     -9.48122220	     -9.91354585	      0.84291672	      0.92719772	    -10.32706545	    -12.74265467	     -2.71505674	     29.71708204	     46.49927965	      0.00000000	      0.00000000	     18.14956528	    -12.00606025	     -1.81200791	     59.47960353	     46.79937118	      0.00000000	      0.00000000
     11.66914286	      0.33323740	      0.05259059	     -0.51995001	      0.84763369	      0.93633474	      0.41509421	     31.88060272	     -9.90542829	     -8.74336485	     45.84371170	     45.84371170	      3.18292696	    -14.82482499	      2.54285625	      3.15272822	      1.64898006	    -12.27373890	     12.49159359	     12.49159359	     12.29749665	     -4.98266831	     -9.58304669	     -9.73878448	      0.83521882	      0.92118140	    -11.74073911	    -12.85553097	     -2.68460056	     28.97891321	     46.51318482	      0.00000000	      0.00000000	     18.89343546	    -12.08063592	     -2.09371205	     60.30919072	     46.83823168	      0.00000000	      0.00000000
     11.68142857	      0.32675175	      0.17383313	     -0.66621924	      0.84717640	      0.93591314	      0.41505014	     31.18954312	     -9.78999446	     -9.27979551	     41.52567364	     41.52567364	      2.65438750	    -13.74724711	      0.65205946	      2.34807999	      1.81160655	    -12.82805421	     11.89739471	     11.89739471	     12.49756583	     -4.02367835	    -10.18989448	     -9.84598127	      0.61489722	      0.71249096	    -12.40577727	    -12.86390320	     -2.94117576	     26.93615229	     46.58912528	      0.00000000	      0.00000000	     18.83753349	    -12.06407700	     -3.56512365	     63.07368853	     47.00004148	      0.00000000	      0.00000000
     11.69371429	      0.09112881	      0.21471009	     -0.74840857	      0.84668717	      0.93506183	      0.41513258	     30.70302027	     -9.52572580	     -9.87725758	     37.35918128	     37.35918128	      2.79761160	    -12.33226826	      1.13206939	      1.91974863	      1.89918599	    -12.92213680	     11.53769462	     11.53769462	     12.77834732	     -3.75274959	    -10.32850071	     -9.62108126	      0.55120936	      0.73600240	    -13.68987400	    -13.00691491	     -2.96385607	     26.38379387	     46.60068573	      0.00000000	      0.00000000	     19.43458173	    -12.13270458	     -3.76615717	     63.81818242	     47.03023907	      0.00000000	      0.00000000
     11.70600000	      0.08167440	      0.37501773	     -0.90116882	      0.84650493	      0.93438584	      0.41536640	     29.91234637	     -9.41363794	    -10.67003156	     33.36779726	     33.36779726	      2.99914119	    -10.17369832	      1.48364552	      1.13172253	      2.10789971	    -13.32333228	     11.00849633	     11.00849633	     13.04791459	     -3.01926534	    -10.65647469	     -9.70305416	      0.29485024	      0.96977068	    -14.94733660	    -13.10334722	     -3.11455689	     25.78938309	     46.62211788	      0.00000000	      0.00000000	     19.88093152	    -12.05663364	     -4.21060559	     65.32112271	     47.09088185	      0.00000000	      0.00000000
